<?xml version="1.0" encoding="UTF-8" standalone="no"?>
<!-- Created with Inkscape (http://www.inkscape.org/) -->

<svg
   xmlns:dc="http://purl.org/dc/elements/1.1/"
   xmlns:cc="http://creativecommons.org/ns#"
   xmlns:rdf="http://www.w3.org/1999/02/22-rdf-syntax-ns#"
   xmlns:svg="http://www.w3.org/2000/svg"
   xmlns="http://www.w3.org/2000/svg"
   xmlns:sodipodi="http://sodipodi.sourceforge.net/DTD/sodipodi-0.dtd"
   xmlns:inkscape="http://www.inkscape.org/namespaces/inkscape"
   id="svg2"
   version="1.1"
   inkscape:version="0.91 r13725"
   xml:space="preserve"
   width="139.655"
   height="51.612499"
   viewBox="0 0 139.655 51.612499"
   sodipodi:docname="ASF (jusqu'en 2004).svg"><metadata
     id="metadata8"><rdf:RDF><cc:Work
         rdf:about=""><dc:format>image/svg+xml</dc:format><dc:type
           rdf:resource="http://purl.org/dc/dcmitype/StillImage" /><dc:title></dc:title></cc:Work></rdf:RDF></metadata><defs
     id="defs6" /><sodipodi:namedview
     pagecolor="#ffffff"
     bordercolor="#666666"
     borderopacity="1"
     objecttolerance="10"
     gridtolerance="10"
     guidetolerance="10"
     inkscape:pageopacity="0"
     inkscape:pageshadow="2"
     inkscape:window-width="1920"
     inkscape:window-height="1017"
     id="namedview4"
     showgrid="false"
     fit-margin-left="5"
     fit-margin-bottom="5"
     fit-margin-top="5"
     fit-margin-right="5"
     inkscape:zoom="1.2684253"
     inkscape:cx="-35.005366"
     inkscape:cy="122.4083"
     inkscape:window-x="-8"
     inkscape:window-y="-8"
     inkscape:window-maximized="1"
     inkscape:current-layer="g10" /><g
     id="g10"
     inkscape:groupmode="layer"
     inkscape:label="A"
     transform="matrix(1.25,0,0,-1.25,-234.0325,344.60125)"><g
       id="g4456"
       style="fill:#2d69af;fill-opacity:1"><path
         inkscape:connector-curvature="0"
         id="path104"
         style="fill:#2d69af;fill-opacity:1;fill-rule:nonzero;stroke:none"
         d="m 211.836,260.98 c 0,0 0.37,-1.441 4.744,-3.242 7.954,-3.274 9.218,-6.589 9.199,-10.39 -0.024,-4.698 -3.46,-8.816 -9.227,-8.807 -0.306,0 -1.667,0 -1.974,0 -0.002,0 -2.742,22.439 -2.742,22.439" /><path
         inkscape:connector-curvature="0"
         id="path106"
         style="fill:#2d69af;fill-opacity:1;fill-rule:nonzero;stroke:none"
         d="m 206.171,270.758 c 0,0 -4.316,0.005 -5.319,-0.007 -3.217,-0.041 -9.627,-1.225 -9.626,-8.537 0.002,-6.961 7.126,-9.825 9.331,-11.285 0,0 2.076,-1.191 2.997,-2.639 l 2.617,22.468" /><path
         inkscape:connector-curvature="0"
         id="path108"
         style="fill:#2d69af;fill-opacity:1;fill-rule:nonzero;stroke:none"
         d="m 202.588,238.52 c 0,0 0.304,1.74 0.304,3.72 0,4.809 -2.537,6.315 -5.059,7.736 -4.489,2.529 -5.374,4.359 -5.374,4.359 l 0,-15.817 10.129,0.002" /><path
         inkscape:connector-curvature="0"
         id="path110"
         style="fill:#2d69af;fill-opacity:1;fill-rule:nonzero;stroke:none"
         d="m 207.796,270.758 -1.639,-32.239 4.57,0 -1.59,32.239 -1.341,0" /><path
         inkscape:connector-curvature="0"
         id="path112"
         style="fill:#2d69af;fill-opacity:1;fill-rule:nonzero;stroke:none"
         d="m 210.726,270.765 c 0.207,-4.348 0.914,-7.546 3.413,-9.216 0.654,-0.436 1.667,-1.146 4.733,-2.477 2.702,-1.173 4.08,-2.004 4.858,-2.796 0.003,-0.002 0.006,14.487 0.006,14.487 l -13.01,0.002" /><path
         inkscape:connector-curvature="0"
         id="path114"
         style="fill:#2d69af;fill-opacity:1;fill-rule:nonzero;stroke:none"
         d="m 236.787,263.518 -0.737,1.929 -3.52,0 -0.749,-1.929 -1.555,0 3.275,8.163 1.66,0 3.275,-8.163 -1.649,0 z m -2.491,6.689 -0.012,-0.012 -1.322,-3.567 2.656,0 -1.322,3.579" /><path
         inkscape:connector-curvature="0"
         id="path116"
         style="fill:#2d69af;fill-opacity:1;fill-rule:nonzero;stroke:none"
         d="m 243.577,263.518 0.012,0.853 -0.036,0 c -0.432,-0.608 -1.146,-0.994 -1.964,-0.994 -1.462,0 -2.106,0.994 -2.106,2.421 l 0,3.72 1.428,0 0.011,-3.17 c 0,-0.936 0.094,-1.848 1.088,-1.848 1.169,-0.012 1.508,1.158 1.508,2.128 l 0,2.89 1.427,0 0,-6 -1.368,0" /><path
         inkscape:connector-curvature="0"
         id="path118"
         style="fill:#2d69af;fill-opacity:1;fill-rule:nonzero;stroke:none"
         d="m 250.202,263.518 c -0.304,-0.082 -0.654,-0.141 -1.076,-0.141 -1.205,0 -1.894,0.69 -1.894,1.883 l 0,3.193 -1.217,0 0,1.065 1.217,0 0,1.263 1.427,0.455 0,-1.718 1.437,0 0,-1.065 -1.437,0 0,-2.935 c 0,-0.574 0.221,-1.018 0.783,-1.018 0.303,0 0.562,0.07 0.725,0.176 l 0.035,-1.147 0,-0.011" /><path
         inkscape:connector-curvature="0"
         id="path120"
         style="fill:#2d69af;fill-opacity:1;fill-rule:nonzero;stroke:none"
         d="m 254.08,263.377 c -1.931,0 -3.112,1.392 -3.112,3.1 0,1.941 1.323,3.181 3.112,3.192 1.801,0 3.121,-1.24 3.121,-3.181 0,-1.719 -1.179,-3.111 -3.121,-3.111 z m 1.625,3.251 c 0,0.983 -0.549,1.919 -1.625,1.919 -1.065,0 -1.613,-0.947 -1.613,-1.919 0,-1.017 0.397,-2.128 1.613,-2.128 1.227,0 1.625,1.1 1.625,2.117 l 0,0.011" /><path
         inkscape:connector-curvature="0"
         id="path122"
         style="fill:#2d69af;fill-opacity:1;fill-rule:nonzero;stroke:none"
         d="m 261.418,268.324 c -1.18,0 -1.38,-1.391 -1.38,-2.444 l 0,-2.362 -1.428,0 0,6 1.288,0 0,-1.229 0.011,-0.011 c 0.141,0.585 0.784,1.38 1.626,1.391 0.21,0 0.375,-0.011 0.561,-0.058 l 0,-1.404 c -0.164,0.082 -0.421,0.117 -0.678,0.117" /><path
         inkscape:connector-curvature="0"
         id="path124"
         style="fill:#2d69af;fill-opacity:1;fill-rule:nonzero;stroke:none"
         d="m 265.951,263.377 c -1.93,0 -3.112,1.392 -3.112,3.1 0,1.941 1.322,3.181 3.112,3.192 1.801,0 3.122,-1.24 3.122,-3.181 0,-1.719 -1.181,-3.111 -3.122,-3.111 z m 1.625,3.251 c 0,0.983 -0.548,1.919 -1.625,1.919 -1.064,0 -1.615,-0.947 -1.615,-1.919 0,-1.017 0.399,-2.128 1.615,-2.128 1.228,0 1.625,1.1 1.625,2.117 l 0,0.011" /><path
         inkscape:connector-curvature="0"
         id="path126"
         style="fill:#2d69af;fill-opacity:1;fill-rule:nonzero;stroke:none"
         d="m 274.553,263.518 0.012,0.853 -0.036,0 c -0.433,-0.608 -1.146,-0.994 -1.965,-0.994 -1.462,0 -2.103,0.994 -2.103,2.421 l 0,3.72 1.425,0 0.012,-3.17 c 0,-0.936 0.094,-1.848 1.086,-1.848 1.171,-0.012 1.511,1.158 1.511,2.128 l 0,2.89 1.426,0 0,-6 -1.368,0" /><path
         inkscape:connector-curvature="0"
         id="path128"
         style="fill:#2d69af;fill-opacity:1;fill-rule:nonzero;stroke:none"
         d="m 281.178,263.518 c -0.304,-0.082 -0.655,-0.141 -1.075,-0.141 -1.206,0 -1.896,0.69 -1.896,1.883 l 0,3.193 -1.216,0 0,1.065 1.216,0 0,1.263 1.428,0.455 0,-1.718 1.437,0 0,-1.065 -1.437,0 0,-2.935 c 0,-0.574 0.221,-1.018 0.782,-1.018 0.306,0 0.56,0.07 0.727,0.176 l 0.034,-1.147 0,-0.011" /><path
         inkscape:connector-curvature="0"
         id="path130"
         style="fill:#2d69af;fill-opacity:1;fill-rule:nonzero;stroke:none"
         d="m 283.349,266.102 c 0.046,-1.029 0.793,-1.66 1.789,-1.648 0.748,0 1.461,0.303 1.953,0.596 l -0.012,-1.217 c -0.526,-0.269 -1.123,-0.456 -2.012,-0.456 -2.023,0 -3.123,1.193 -3.123,3.146 0,1.755 0.983,3.135 2.796,3.146 2.164,0 2.795,-1.508 2.795,-3.567 l -4.186,0 z m 2.794,1.006 c -0.035,0.807 -0.445,1.485 -1.344,1.485 -0.937,0 -1.381,-0.689 -1.45,-1.485 l 2.794,0" /><path
         inkscape:connector-curvature="0"
         id="path132"
         style="fill:#2d69af;fill-opacity:1;fill-rule:nonzero;stroke:none"
         d="m 292.675,265.319 c 0,-1.369 -1.181,-1.942 -2.396,-1.942 -0.585,0 -1.183,0.094 -1.73,0.281 l 0.068,1.193 c 0.479,-0.258 1.03,-0.409 1.498,-0.397 0.431,0 1.063,0.163 1.052,0.76 0,1.157 -2.678,0.561 -2.678,2.572 0,1.287 1.077,1.872 2.293,1.883 0.666,0 1.135,-0.116 1.601,-0.233 l -0.093,-1.123 c -0.409,0.164 -0.853,0.28 -1.333,0.28 -0.468,0 -0.971,-0.175 -0.96,-0.678 0,-1.041 2.678,-0.514 2.678,-2.608 l 0,0.012" /><path
         inkscape:connector-curvature="0"
         id="path134"
         style="fill:#2d69af;fill-opacity:1;fill-rule:nonzero;stroke:none"
         d="m 234.968,251.188 0,0.725 -0.024,0 c -0.421,-0.538 -1.076,-0.866 -1.907,-0.866 -1.836,0 -2.538,1.545 -2.538,3.182 0,1.649 0.726,3.099 2.538,3.111 0.866,0 1.427,-0.316 1.86,-0.889 l 0.023,0 0,3.509 1.428,0 0,-8.772 -1.38,0 z m -2.972,3.03 c 0,-0.867 0.352,-2.048 1.416,-2.048 1.099,0 1.497,1.135 1.497,2.023 0,0.925 -0.456,2.024 -1.509,2.024 -1.076,0 -1.404,-1.111 -1.404,-1.999" /><path
         inkscape:connector-curvature="0"
         id="path136"
         style="fill:#2d69af;fill-opacity:1;fill-rule:nonzero;stroke:none"
         d="m 242.212,251.188 0.012,0.854 -0.035,0 c -0.433,-0.609 -1.146,-0.995 -1.965,-0.995 -1.462,0 -2.105,0.995 -2.105,2.422 l 0,3.719 1.427,0 0.012,-3.17 c 0,-0.935 0.093,-1.848 1.087,-1.848 1.17,-0.011 1.509,1.158 1.509,2.129 l 0,2.889 1.427,0 0,-6 -1.369,0" /><path
         inkscape:connector-curvature="0"
         id="path138"
         style="fill:#2d69af;fill-opacity:1;fill-rule:nonzero;stroke:none"
         d="m 250.532,251.047 c -0.796,0 -1.24,0.13 -1.966,0.328 l 0.128,1.345 c 0.516,-0.257 1.183,-0.468 1.812,-0.456 0.633,0 1.5,0.328 1.5,1.123 0,1.637 -3.556,1.041 -3.556,3.695 0,1.708 1.332,2.41 2.772,2.41 0.655,0 1.31,-0.094 1.894,-0.293 l -0.152,-1.251 c -0.538,0.222 -1.041,0.339 -1.627,0.339 -0.584,0 -1.319,-0.245 -1.319,-1.122 0,-1.463 3.554,-0.936 3.554,-3.661 0,-1.778 -1.391,-2.457 -3.04,-2.457" /><path
         inkscape:connector-curvature="0"
         id="path140"
         style="fill:#2d69af;fill-opacity:1;fill-rule:nonzero;stroke:none"
         d="m 259.069,251.188 0.013,0.854 -0.036,0 c -0.432,-0.609 -1.146,-0.995 -1.965,-0.995 -1.46,0 -2.105,0.995 -2.105,2.422 l 0,3.719 1.428,0 0.01,-3.17 c 0,-0.935 0.095,-1.848 1.089,-1.848 1.169,-0.011 1.509,1.158 1.509,2.129 l 0,2.889 1.427,0 0,-6 -1.37,0" /><path
         inkscape:connector-curvature="0"
         id="path142"
         style="fill:#2d69af;fill-opacity:1;fill-rule:nonzero;stroke:none"
         d="m 266.461,251.188 0,0.725 -0.024,0 c -0.422,-0.538 -1.077,-0.866 -1.907,-0.866 -1.836,0 -2.538,1.545 -2.538,3.182 0,1.649 0.726,3.099 2.538,3.111 0.867,0 1.428,-0.316 1.861,-0.889 l 0.022,0 0,3.509 1.428,0 0,-8.772 -1.38,0 z m -2.972,3.03 c 0,-0.867 0.352,-2.048 1.417,-2.048 1.098,0 1.496,1.135 1.496,2.023 0,0.925 -0.457,2.024 -1.51,2.024 -1.075,0 -1.403,-1.111 -1.403,-1.999" /><path
         inkscape:connector-curvature="0"
         id="path144"
         style="fill:#2d69af;fill-opacity:1;fill-rule:nonzero;stroke:none"
         d="m 234.968,238.532 0,0.726 -0.024,0 c -0.421,-0.538 -1.076,-0.867 -1.907,-0.867 -1.836,0 -2.538,1.544 -2.538,3.182 0,1.65 0.726,3.1 2.538,3.112 0.866,0 1.427,-0.316 1.86,-0.889 l 0.023,0 0,3.508 1.428,0 0,-8.772 -1.38,0 z m -2.972,3.031 c 0,-0.867 0.352,-2.049 1.416,-2.049 1.099,0 1.497,1.135 1.497,2.024 0,0.924 -0.456,2.023 -1.509,2.023 -1.076,0 -1.404,-1.11 -1.404,-1.998" /><path
         inkscape:connector-curvature="0"
         id="path146"
         style="fill:#2d69af;fill-opacity:1;fill-rule:nonzero;stroke:none"
         d="m 239.104,241.118 c 0.047,-1.029 0.795,-1.662 1.789,-1.65 0.748,0 1.462,0.305 1.953,0.598 l -0.011,-1.217 c -0.527,-0.269 -1.123,-0.458 -2.012,-0.458 -2.023,0 -3.123,1.195 -3.123,3.147 0,1.754 0.983,3.135 2.795,3.147 2.164,0 2.796,-1.51 2.796,-3.567 l -4.187,0 z m 2.795,1.004 c -0.035,0.808 -0.444,1.486 -1.345,1.486 -0.936,0 -1.38,-0.69 -1.45,-1.486 l 2.795,0" /><path
         inkscape:connector-curvature="0"
         id="path148"
         style="fill:#2d69af;fill-opacity:1;fill-rule:nonzero;stroke:none"
         d="m 247.458,247.304 1.427,0 0,-8.772 -1.427,0 0,8.772 z" /><path
         inkscape:connector-curvature="0"
         id="path150"
         style="fill:#2d69af;fill-opacity:1;fill-rule:nonzero;stroke:none"
         d="m 254.377,238.52 c -0.046,0.223 -0.046,0.738 -0.057,0.877 l -0.023,0 c -0.328,-0.572 -1.052,-1.006 -1.86,-1.006 -1.135,0 -2.129,0.622 -2.129,1.814 0,0.853 0.421,1.368 1.006,1.673 0.586,0.291 1.333,0.362 1.954,0.362 0.128,0 0.83,0.011 0.958,0 0,0.993 -0.409,1.368 -1.38,1.368 -0.656,0 -1.322,-0.245 -1.824,-0.643 l -0.059,1.216 c 0.597,0.293 1.368,0.492 2.058,0.492 1.803,0 2.538,-0.784 2.538,-2.515 l 0,-1.286 c 0,-0.504 0.013,-0.878 0.025,-1.241 0.011,-0.396 0.034,-0.735 0.058,-1.099 l -1.265,-0.012 z m -0.828,2.819 c -0.669,0 -1.838,-0.105 -1.85,-1.075 0,-0.549 0.491,-0.808 1.042,-0.796 0.491,0 0.866,0.187 1.123,0.48 0.269,0.327 0.375,0.891 0.374,1.392 0,0 -0.62,-0.001 -0.689,-0.001" /><path
         inkscape:connector-curvature="0"
         id="path152"
         style="fill:#2d69af;fill-opacity:1;fill-rule:nonzero;stroke:none"
         d="m 274.404,238.52 c -0.047,0.223 -0.047,0.738 -0.059,0.877 l -0.022,0 c -0.328,-0.572 -1.053,-1.006 -1.86,-1.006 -1.135,0 -2.129,0.622 -2.129,1.814 0,0.853 0.422,1.368 1.008,1.673 0.583,0.291 1.331,0.362 1.951,0.362 0.13,0 0.831,0.011 0.96,0 0,0.993 -0.408,1.368 -1.382,1.368 -0.654,0 -1.32,-0.245 -1.823,-0.643 l -0.059,1.216 c 0.597,0.293 1.37,0.492 2.058,0.492 1.801,0 2.538,-0.784 2.538,-2.515 l 0,-1.286 c 0,-0.504 0.012,-0.878 0.024,-1.241 0.012,-0.396 0.035,-0.735 0.058,-1.099 l -1.263,-0.012 z m -0.829,2.819 c -0.667,0 -1.839,-0.105 -1.849,-1.075 0,-0.549 0.491,-0.808 1.041,-0.796 0.492,0 0.866,0.187 1.124,0.48 0.267,0.327 0.374,0.891 0.374,1.392 0,0 -0.621,-0.001 -0.69,-0.001" /><path
         inkscape:connector-curvature="0"
         id="path154"
         style="fill:#2d69af;fill-opacity:1;fill-rule:nonzero;stroke:none"
         d="m 261.844,245.491 0,-2.128 2.831,0 0,-1.205 -2.831,0 0,-3.626 -1.497,0 0,8.165 4.468,0 0,-1.206 -2.971,0" /><path
         inkscape:connector-curvature="0"
         id="path156"
         style="fill:#2d69af;fill-opacity:1;fill-rule:nonzero;stroke:none"
         d="m 268.966,243.339 c -1.184,0 -1.382,-1.392 -1.382,-2.445 l 0,-2.362 -1.426,0 0,6 1.288,0 0,-1.228 0.01,-0.012 c 0.14,0.585 0.783,1.381 1.625,1.393 0.211,0 0.376,-0.012 0.563,-0.059 l 0,-1.403 c -0.165,0.081 -0.422,0.116 -0.678,0.116" /><path
         inkscape:connector-curvature="0"
         id="path158"
         style="fill:#2d69af;fill-opacity:1;fill-rule:nonzero;stroke:none"
         d="m 281.333,238.532 -0.012,3.171 c 0,0.934 -0.093,1.847 -1.089,1.858 -1.167,0.012 -1.507,-1.157 -1.507,-2.141 l 0,-2.888 -1.428,0 0,6 1.357,0 0,-0.853 0.035,-0.013 c 0.445,0.69 1.147,1.007 1.966,1.019 1.462,0 2.104,-0.995 2.104,-2.434 l 0,-3.719 -1.426,0" /><path
         inkscape:connector-curvature="0"
         id="path160"
         style="fill:#2d69af;fill-opacity:1;fill-rule:nonzero;stroke:none"
         d="m 288.58,238.603 c -0.455,-0.165 -0.936,-0.212 -1.496,-0.212 -1.931,0 -2.995,1.37 -3.006,3.158 0,1.768 1.086,3.124 2.96,3.136 0.572,0 1.063,-0.082 1.46,-0.211 l -0.116,-1.146 c -0.327,0.14 -0.666,0.233 -1.1,0.233 -1.052,0 -1.695,-0.864 -1.695,-1.998 0,-1.1 0.537,-2.049 1.73,-2.06 0.422,0 0.9,0.152 1.195,0.303 l 0.08,-1.203 -0.012,0" /><path
         inkscape:connector-curvature="0"
         id="path162"
         style="fill:#2d69af;fill-opacity:1;fill-rule:nonzero;stroke:none"
         d="m 290.763,241.118 c 0.049,-1.029 0.796,-1.662 1.79,-1.65 0.748,0 1.463,0.305 1.954,0.598 l -0.014,-1.217 c -0.523,-0.269 -1.121,-0.458 -2.009,-0.458 -2.025,0 -3.123,1.195 -3.123,3.147 0,1.754 0.982,3.135 2.794,3.147 2.163,0 2.795,-1.51 2.795,-3.567 l -4.187,0 z m 2.796,1.004 c -0.035,0.808 -0.445,1.486 -1.345,1.486 -0.937,0 -1.379,-0.69 -1.451,-1.486 l 2.796,0" /></g></g></svg>